HIERARCHY
ROOT Hips
{
	OFFSET -3.958830 18.904000 13.208200
	CHANNELS 6 Xposition Yposition Zposition Zrotation Yrotation Xrotation 
	JOINT LHipJoint
	{
		OFFSET 0.000000 0.000000 0.000000
		CHANNELS 3 Zrotation Yrotation Xrotation
		JOINT LeftUpLeg
		{
			OFFSET 1.800000 -1.400000 0.085000
			CHANNELS 3 Zrotation Yrotation Xrotation
			JOINT LeftLeg
			{
				OFFSET 2.215000 -6.000000 0.000000
				CHANNELS 3 Zrotation Yrotation Xrotation
				JOINT LeftFoot
				{
					OFFSET 2.500000 -6.900000 0.000000
					CHANNELS 3 Zrotation Yrotation Xrotation
					JOINT LeftToeBase
					{
						OFFSET 0.200000 -0.500000 1.950000
						CHANNELS 3 Zrotation Yrotation Xrotation
						End Site
						{
							OFFSET 0.000000 0.000000 0.000000
						}
					}
				}
			}
		}
	}
	JOINT RHipJoint
	{
		OFFSET 0.000000 0.000000 0.000000
		CHANNELS 3 Zrotation Yrotation Xrotation
		JOINT RightUpLeg
		{
			OFFSET -1.800000 -1.400000 0.085000
			CHANNELS 3 Zrotation Yrotation Xrotation
			JOINT RightLeg
			{
				OFFSET -2.215000 -6.000000 0.000000
				CHANNELS 3 Zrotation Yrotation Xrotation
				JOINT RightFoot
				{
					OFFSET -2.500000 -6.900000 0.000000
					CHANNELS 3 Zrotation Yrotation Xrotation
					JOINT RightToeBase
					{
						OFFSET -0.200000 -0.500000 1.950000
						CHANNELS 3 Zrotation Yrotation Xrotation
						End Site
						{
							OFFSET 0.000000 0.000000 0.000000
						}
					}
				}
			}
		}
	}
	JOINT LowerBack
	{
		OFFSET 0.000000 0.000000 0.000000
		CHANNELS 3 Zrotation Yrotation Xrotation
		JOINT Spine
		{
			OFFSET -0.087000 1.940000 -0.288900
			CHANNELS 3 Zrotation Yrotation Xrotation
			JOINT Spine1
			{
				OFFSET 0.000000 1.950000 0.060000
				CHANNELS 3 Zrotation Yrotation Xrotation
				JOINT Neck
				{
					OFFSET 0.000000 0.000000 0.000000
					CHANNELS 3 Zrotation Yrotation Xrotation
					JOINT Neck1
					{
						OFFSET 0.000000 1.600000 0.340000
						CHANNELS 3 Zrotation Yrotation Xrotation
						JOINT Head
						{
							OFFSET 0.000000 1.667000 -0.240000
							CHANNELS 3 Zrotation Yrotation Xrotation
							End Site
							{
								OFFSET 0.000000 0.000000 0.000000
							}
						}
					}
				}
				JOINT LeftShoulder
				{
					OFFSET 0.000000 0.000000 0.000000
					CHANNELS 3 Zrotation Yrotation Xrotation
					JOINT LeftArm
					{
						OFFSET 2.700000 1.550000 -0.730000
						CHANNELS 3 Zrotation Yrotation Xrotation
						JOINT LeftForeArm
						{
							OFFSET 5.450000 0.000000 0.000000
							CHANNELS 3 Zrotation Yrotation Xrotation
							JOINT LeftHand
							{
								OFFSET 3.450000 0.000000 0.000000
								CHANNELS 3 Zrotation Yrotation Xrotation
								JOINT LeftHandIndex1
								{
									OFFSET 0.750000 0.000000 0.000000
									CHANNELS 3 Zrotation Yrotation Xrotation
									End Site
									{
										OFFSET 0.000000 0.000000 0.000000
									}
								}
							}
						}
					}
				}
				JOINT RightShoulder
				{
					OFFSET 0.000000 0.000000 0.000000
					CHANNELS 3 Zrotation Yrotation Xrotation
					JOINT RightArm
					{
						OFFSET -2.700000 1.550000 -0.730000
						CHANNELS 3 Zrotation Yrotation Xrotation
						JOINT RightForeArm
						{
							OFFSET -5.450000 0.000000 0.000000
							CHANNELS 3 Zrotation Yrotation Xrotation
							JOINT RightHand
							{
								OFFSET -3.450000 0.000000 0.000000
								CHANNELS 3 Zrotation Yrotation Xrotation
								JOINT RightHandIndex1
								{
									OFFSET -0.750000 0.000000 0.000000
									CHANNELS 3 Zrotation Yrotation Xrotation
									End Site
									{
										OFFSET 0.000000 0.000000 0.000000
									}
								}
							}
						}
					}
				}
			}
		}
	}
}
MOTION
Frames: 9
Frame Time: 0.016667
-3.817070 17.686980 2.476330 12.210417 -15.550300 -11.342958 -15.532437 11.365934 6.441335 13.079710 -15.283032 -42.500666 -8.178382 30.627501 90.912806 2.760963 18.630672 -1.044208 -0.361000 -0.584250 -0.552940 18.273319 -9.139790 1.838305 -14.385455 2.614593 -25.665051 3.635003 -14.556517 53.756754 -1.178554 -8.642327 1.521229 -0.460450 0.630160 0.197700 -3.183461 -3.376898 -9.353264 12.289576 -7.348222 45.923434 -8.309629 -0.540384 -13.327673 5.614062 -8.593174 -11.170028 -23.367626 12.985809 43.545390 -3.859270 4.716310 -12.885260 -6.482708 10.002246 -0.175518 -55.918436 -2.748847 -9.103305 13.412462 -53.156345 -8.116963 -3.619307 2.535017 0.916640 0.088500 -0.008570 0.143410 -3.873646 -1.683278 6.851666 69.158106 -1.277478 -18.901868 1.247189 57.837596 0.344423 1.745605 -1.099975 -0.435810 0.475600 0.568540 -0.016700 
-3.771680 17.653260 2.281020 13.455450 -15.547976 -14.168312 -15.529723 10.631769 6.921884 16.318254 -16.111170 -46.486795 -16.862101 35.473040 84.962842 2.661675 19.039177 -1.228516 -0.181710 -0.342010 -0.398480 18.365310 -9.108687 1.707038 -16.182239 2.629134 -25.092890 3.931566 -15.024694 54.887803 -1.279536 -9.032433 1.294370 -0.232810 0.604880 0.265750 -3.375367 -2.568798 -9.449669 12.087998 -7.199345 48.336057 -8.748403 -0.079155 -2.301297 4.749920 -8.038330 -11.129449 -19.985924 9.772387 39.539324 -6.405010 3.754510 -17.535240 -7.631358 -1.359441 0.873873 -49.730971 -13.096852 -8.040722 27.878551 -47.563230 -14.640648 -3.719035 2.386184 0.874900 0.155370 0.021510 0.132470 -1.827948 8.476779 7.170814 63.716067 6.308684 -19.809165 -18.139515 58.718906 -10.960672 1.542749 -0.960943 -0.425800 0.523100 0.539910 -0.054510 
-3.759530 17.624250 2.117660 15.461751 -15.280536 -15.461111 -15.561895 9.954050 7.290975 18.997255 -16.459318 -51.015075 -25.780868 38.396391 76.883817 2.316934 18.809707 -1.307593 -0.022700 -0.117550 -0.237920 18.435828 -8.987219 1.707645 -18.509974 2.844092 -26.005776 4.591965 -15.678755 56.035944 -1.353939 -9.417144 1.079934 0.022470 0.600350 0.271630 -3.492954 -1.886261 -9.525597 10.786456 -6.008154 47.792372 -8.356849 0.616318 8.485302 3.574300 -6.717244 -11.117004 -15.550723 7.421961 36.387296 -7.813960 3.271500 -21.139570 -6.275074 -11.977007 2.568370 -39.162503 -19.089806 -7.748950 35.324425 -37.762887 -15.849636 -3.873982 2.283337 0.879230 0.232810 0.032230 0.093230 -1.199216 17.307069 7.869467 54.412515 10.933290 -20.435813 -34.258582 54.723879 -19.404748 1.263233 -0.757713 -0.492160 0.650660 0.544510 -0.131570 
-3.767910 17.604310 1.992420 16.982012 -14.833046 -15.860794 -15.622726 9.549624 7.586154 21.372460 -16.444370 -55.073920 -32.745050 39.312043 69.850476 2.103398 18.163595 -1.213617 0.154280 0.127590 -0.090060 18.456293 -8.820894 1.716274 -20.318447 2.844910 -26.675851 5.787180 -16.142417 55.394725 -1.404988 -9.454766 1.004575 0.194690 0.532570 0.284370 -3.478209 -1.655132 -9.607812 9.491548 -5.207269 47.558357 -7.540407 1.008249 14.770179 2.874683 -5.625732 -11.889531 -12.908050 6.181969 35.595450 -8.412440 2.977900 -23.381860 -5.322416 -19.697654 4.437262 -28.290913 -18.561064 -8.762314 35.875462 -31.770860 -14.323312 -3.899833 2.352478 0.870520 0.230020 0.108380 0.111540 -0.710338 24.066530 8.967714 44.543667 11.774331 -20.802388 -43.626038 48.263462 -22.701724 1.188471 -0.817515 -0.457990 0.692420 0.460320 -0.146820 
-3.771620 17.569500 1.912350 18.485570 -15.639938 -16.208959 -15.740687 9.377878 7.864020 23.803542 -15.533084 -58.343758 -37.834216 40.724059 65.618362 2.070336 17.839316 -1.129481 0.157110 0.125630 -0.052090 18.404451 -8.513060 1.765972 -21.683775 3.210123 -27.534439 6.785234 -16.521335 55.148503 -1.427134 -9.470182 0.977156 0.181350 0.488020 0.282360 -3.274259 -1.925291 -9.784458 7.114834 -4.050427 49.009376 -6.654754 1.544128 15.963796 3.004231 -5.221133 -13.214559 -12.477905 6.094174 36.854036 -9.167980 3.220150 -24.880720 -5.944743 -23.216498 5.559639 -21.589265 -15.358272 -9.865363 35.432547 -30.624133 -13.373937 -3.887167 2.366026 0.914800 0.191180 0.154820 0.095300 -0.247862 27.982320 9.866001 37.033934 11.238569 -20.791149 -44.955902 44.346227 -21.648066 1.232993 -0.879955 -0.457530 0.695080 0.449880 -0.161880 
-3.777300 17.552450 1.869610 19.284391 -16.758936 -16.504896 -15.786518 9.210692 8.056340 25.979250 -13.995682 -59.916633 -41.392325 42.131963 62.987086 2.116968 17.571342 -1.054825 0.191440 0.147350 -0.023730 18.401662 -8.319541 1.841994 -22.542704 3.722967 -28.162314 7.747193 -16.909858 55.071355 -1.460944 -9.526444 0.945900 0.156140 0.409780 0.293700 -3.249340 -1.929104 -9.933463 6.456329 -3.910737 50.038336 -7.039577 1.824542 15.597335 3.412460 -5.481331 -14.317104 -13.455993 6.324382 38.274660 -9.365620 3.133000 -25.078030 -7.584769 -24.762895 6.141692 -18.363464 -12.769877 -10.415291 34.501689 -30.302859 -12.504825 -3.825323 2.466736 0.924100 0.131890 0.193700 0.099540 0.711760 30.259695 10.386630 32.973941 11.270902 -20.373111 -44.434730 41.244307 -19.955022 1.335951 -1.000271 -0.401850 0.619990 0.405190 -0.158060 
-3.792340 17.534890 1.874690 19.935985 -17.194112 -16.908417 -15.805871 9.136039 8.100271 26.975013 -13.108703 -59.742311 -42.447874 43.845177 63.249508 2.268487 17.659282 -1.027094 0.215840 0.206460 -0.041510 18.401042 -8.194992 1.906783 -23.711384 3.773515 -28.499997 8.581337 -17.572302 55.393552 -1.520827 -9.693510 0.918242 0.153280 0.406570 0.292940 -3.242147 -1.968701 -10.016009 6.309135 -3.817587 49.807732 -6.950554 1.920475 15.660589 3.394915 -5.802899 -14.914484 -14.630120 6.435236 39.311880 -8.617330 2.591640 -24.627200 -7.507999 -25.205698 6.637793 -19.815028 -12.598695 -9.939283 33.001346 -28.584536 -11.506820 -3.786120 2.509367 0.890440 0.114700 0.223110 0.142900 0.750474 31.056815 10.697421 32.858963 10.579207 -20.536504 -43.286954 41.024748 -19.286133 1.371480 -1.027888 -0.349430 0.619550 0.360920 -0.106670 
-3.807390 17.538580 1.923060 19.990303 -17.574560 -17.102470 -15.762557 9.073631 8.093216 27.855762 -12.217948 -58.147158 -43.461383 45.656019 63.635176 2.253221 17.816727 -1.089501 0.194720 0.163030 -0.047910 18.441532 -8.242630 1.884101 -24.053977 3.639252 -28.176332 8.662699 -17.833080 55.443702 -1.506118 -9.755730 0.878473 0.157750 0.418080 0.286370 -3.378867 -1.772398 -10.001144 7.855742 -4.580403 48.232192 -7.744540 1.822859 16.137985 3.380326 -6.410612 -14.831096 -16.277557 6.842627 39.399565 -8.638950 2.101980 -23.859190 -7.121014 -24.795136 6.760463 -23.635128 -14.110385 -8.676062 31.576563 -25.637666 -10.609430 -3.830968 2.492784 0.904840 0.126660 0.189860 0.105330 0.390655 30.486115 10.755747 36.945615 9.570068 -21.308621 -42.864351 42.699921 -19.913310 1.309984 -0.975997 -0.381530 0.630980 0.410650 -0.132680 
-3.834910 17.537460 1.993860 19.500245 -17.939250 -17.052794 -15.716546 9.027848 8.122519 28.933611 -11.098058 -56.294678 -43.638671 48.122580 65.320624 2.410244 18.024518 -1.084730 0.164010 0.138170 -0.080270 18.479421 -8.300250 1.847367 -23.525215 3.606487 -27.905682 8.324199 -17.929907 55.876414 -1.519227 -9.782698 0.912894 0.121470 0.423490 0.247340 -3.513965 -1.567923 -10.018913 9.548467 -5.568365 46.716787 -8.940323 1.527901 14.432668 3.831477 -6.588956 -14.667348 -17.146751 7.942762 40.998703 -7.994300 2.636580 -22.754700 -8.126519 -23.105510 6.795108 -29.337262 -12.848887 -8.919054 30.336736 -27.972454 -10.896554 -3.742127 2.452023 0.899880 0.109550 0.183430 0.121230 0.524949 28.719353 10.648608 43.425318 9.055049 -21.291530 -39.732837 44.182675 -18.990701 1.336570 -0.915638 -0.384690 0.638810 0.395520 -0.116290 
